<?xml version="1.0" encoding="utf-8"?>
<svg xmlns="http://www.w3.org/2000/svg" viewBox="0 0 500 500">
  <defs>
    <linearGradient gradientUnits="userSpaceOnUse" x1="250" y1="13.878" x2="250" y2="486.123" id="gradient-0">
      <stop offset="0" style="stop-color: rgb(100% 0% 51.765%)"/>
      <stop offset="1" style="stop-color: rgb(2, 194, 218);"/>
    </linearGradient>
  </defs>
  <path d="M 74.596 13.878 L 425.405 13.878 C 458.939 13.878 486.123 41.062 486.123 74.596 L 486.123 425.405 C 486.123 458.939 458.939 486.123 425.405 486.123 L 74.596 486.123 C 41.062 486.123 13.878 458.939 13.878 425.405 L 13.878 74.596 C 13.878 41.062 41.062 13.878 74.596 13.878 Z M 118.651 318.008 C 123.095 336.529 130.504 351.42 140.876 362.68 C 151.247 373.941 165.323 382.09 183.103 387.128 C 200.883 392.166 223.256 394.684 250.223 394.684 C 277.189 394.684 299.562 392.166 317.342 387.128 C 335.122 382.09 349.198 373.941 359.57 362.68 C 369.941 351.42 377.275 336.529 381.573 318.008 C 385.869 299.488 388.018 276.744 388.018 249.777 C 388.018 223.107 385.869 200.512 381.573 181.991 C 377.275 163.471 369.941 148.58 359.57 137.319 C 349.198 126.059 335.122 117.909 317.342 112.871 C 299.562 107.834 277.189 105.315 250.223 105.315 C 214.366 105.315 186.437 109.908 166.435 119.094 C 146.432 128.281 132.356 143.394 124.207 164.433 C 116.057 185.473 111.983 213.921 111.983 249.777 C 111.983 276.744 114.205 299.488 118.651 318.008 Z M 207.773 325.342 C 198.142 320.601 191.623 312.23 188.215 300.228 C 184.807 288.227 183.103 271.41 183.103 249.777 C 183.103 228.441 184.807 211.847 188.215 199.993 C 191.623 188.14 198.142 179.769 207.773 174.879 C 217.403 169.99 231.553 167.545 250.223 167.545 C 269.188 167.545 283.412 169.99 292.895 174.879 C 302.377 179.769 308.748 188.14 312.008 199.993 C 315.268 211.847 316.898 228.441 316.898 249.777 C 316.898 271.41 315.268 288.227 312.008 300.228 C 308.748 312.23 302.377 320.601 292.895 325.342 C 283.412 330.084 269.188 332.454 250.223 332.454 C 231.553 332.454 217.403 330.084 207.773 325.342 Z" style="stroke: rgb(0, 0, 0); stroke-width: 0px; fill-rule: nonzero; fill: url(&quot;#gradient-0&quot;);"/>
</svg>