<?xml version="1.0" encoding="utf-8"?>
<svg xmlns="http://www.w3.org/2000/svg" viewBox="0 0 500 500">
  <defs>
    <linearGradient gradientUnits="userSpaceOnUse" x1="250" y1="13.878" x2="250" y2="486.123" id="gradient-0">
      <stop offset="0" style="stop-color: rgb(100% 0% 51.765%)"/>
      <stop offset="1" style="stop-color: rgb(2, 194, 218);"/>
    </linearGradient>
  </defs>
  <path d="M 74.596 13.878 L 425.405 13.878 C 458.939 13.878 486.123 41.062 486.123 74.596 L 486.123 425.405 C 486.123 458.939 458.939 486.123 425.405 486.123 L 74.596 486.123 C 41.062 486.123 13.878 458.939 13.878 425.405 L 13.878 74.596 C 13.878 41.062 41.062 13.878 74.596 13.878 Z M 132.875 319.564 L 132.875 382.238 C 148.58 386.091 164.73 389.128 181.325 391.35 C 197.919 393.573 216.588 394.684 237.332 394.684 C 269.04 394.684 294.376 391.425 313.342 384.905 C 332.307 378.386 346.012 368.533 354.458 355.346 C 362.903 342.16 367.126 325.639 367.126 305.784 C 367.126 289.486 364.681 275.633 359.792 264.223 C 354.902 252.815 346.086 243.703 333.344 236.887 C 320.602 230.071 302.377 225.33 278.671 222.663 L 250.667 219.551 C 237.628 218.07 227.701 216.514 220.886 214.884 C 214.07 213.254 209.551 210.81 207.329 207.55 C 205.106 204.29 203.995 199.401 203.995 192.881 C 203.995 186.362 205.624 181.324 208.884 177.768 C 212.144 174.212 217.922 171.619 226.22 169.989 C 234.517 168.36 246.37 167.545 261.78 167.545 C 293.784 167.545 324.454 172.731 353.791 183.102 L 355.125 181.324 L 356.458 120.872 C 330.677 110.501 297.932 105.315 258.224 105.315 C 227.701 105.315 203.253 108.204 184.881 113.982 C 166.508 119.761 153.247 128.873 145.099 141.319 C 136.949 153.765 132.875 170.064 132.875 190.214 C 132.875 207.106 135.468 221.552 140.654 233.553 C 145.839 245.555 154.729 255.111 167.324 262.223 C 179.918 269.335 197.179 273.929 219.108 276.003 L 248.445 278.67 C 261.779 279.856 271.855 281.411 278.671 283.337 C 285.486 285.263 290.079 287.856 292.45 291.116 C 294.82 294.376 296.006 298.821 296.006 304.451 C 296.006 310.971 294.376 316.305 291.117 320.453 C 287.857 324.602 281.115 327.639 270.892 329.565 C 260.668 331.491 245.037 332.454 223.997 332.454 C 208.587 332.454 193.104 331.195 177.547 328.676 C 161.989 326.158 147.691 322.676 134.653 318.23 Z" style="stroke: rgb(0, 0, 0); stroke-width: 0px; fill-rule: nonzero; fill: url(&quot;#gradient-0&quot;);"/>
</svg>