<?xml version="1.0" encoding="utf-8"?>
<svg xmlns="http://www.w3.org/2000/svg" viewBox="0 0 500 500">
  <defs>
    <linearGradient gradientUnits="userSpaceOnUse" x1="250" y1="13.878" x2="250" y2="486.123" id="gradient-0">
      <stop offset="0" style="stop-color: rgb(100% 0% 51.765%)"/>
      <stop offset="1" style="stop-color: rgb(2, 194, 218);"/>
    </linearGradient>
  </defs>
  <path d="M 74.596 13.878 L 425.405 13.878 C 458.939 13.878 486.123 41.062 486.123 74.596 L 486.123 425.405 C 486.123 458.939 458.939 486.123 425.405 486.123 L 74.596 486.123 C 41.062 486.123 13.878 458.939 13.878 425.405 L 13.878 74.596 C 13.878 41.062 41.062 13.878 74.596 13.878 Z M 361.792 280.448 C 356.903 270.669 348.679 263.186 337.122 258 C 325.565 252.815 309.712 249.481 289.561 247.999 L 289.561 246.666 C 316.824 244.296 335.419 237.406 345.346 225.996 C 355.273 214.588 360.236 198.512 360.236 177.768 C 360.236 162.656 357.421 150.062 351.791 139.986 C 346.16 129.911 336.455 122.28 322.676 117.094 C 308.897 111.908 289.709 109.315 265.113 109.315 L 130.874 109.315 L 130.874 390.684 L 269.558 390.684 C 306.6 390.684 332.455 384.609 347.124 372.459 C 361.792 360.31 369.126 342.382 369.126 318.675 C 369.126 302.969 366.681 290.227 361.792 280.448 Z M 277.115 171.101 C 283.634 174.953 286.894 182.213 286.894 192.881 C 286.894 203.846 283.634 211.18 277.115 214.884 C 270.596 218.588 260.076 220.44 245.555 220.44 L 201.994 220.44 L 201.994 165.322 L 245.555 165.322 C 260.076 165.322 270.596 167.249 277.115 171.101 Z M 286.005 284.226 C 292.524 287.93 295.784 295.413 295.784 306.673 C 295.784 317.638 292.524 325.12 286.005 329.12 C 279.486 333.121 268.966 335.121 254.445 335.121 L 201.994 335.121 L 201.994 278.67 L 254.445 278.67 C 268.966 278.67 279.486 280.522 286.005 284.226 Z" style="stroke: rgb(0, 0, 0); stroke-width: 0px; fill-rule: nonzero; fill: url(&quot;#gradient-0&quot;);"/>
</svg>