<?xml version="1.0" encoding="utf-8"?>
<svg xmlns="http://www.w3.org/2000/svg" viewBox="0 0 500 500">
  <defs>
    <linearGradient gradientUnits="userSpaceOnUse" x1="250" y1="13.878" x2="250" y2="486.123" id="gradient-0">
      <stop offset="0" style="stop-color: rgb(100% 0% 51.765%)"/>
      <stop offset="1" style="stop-color: rgb(2, 194, 218);"/>
    </linearGradient>
  </defs>
  <path d="M 74.596 13.878 L 425.405 13.878 C 458.939 13.878 486.123 41.062 486.123 74.596 L 486.123 425.405 C 486.123 458.939 458.939 486.123 425.405 486.123 L 74.596 486.123 C 41.062 486.123 13.878 458.939 13.878 425.405 L 13.878 74.596 C 13.878 41.062 41.062 13.878 74.596 13.878 Z M 357.124 328.009 C 345.271 330.973 333.491 332.973 321.786 334.01 C 310.081 335.048 295.932 335.566 279.337 335.566 C 265.706 335.566 254.519 334.529 245.777 332.454 C 237.035 330.38 230.145 326.38 225.108 320.453 C 220.07 314.527 216.588 305.711 214.662 294.005 C 212.736 282.3 211.773 266.817 211.773 247.555 C 211.773 229.183 212.736 214.514 214.662 203.549 C 216.588 192.585 220.07 184.288 225.108 178.657 C 230.145 173.027 237.035 169.249 245.777 167.322 C 254.519 165.396 265.706 164.433 279.337 164.433 C 296.228 164.433 310.452 165.1 322.009 166.433 C 333.566 167.767 345.567 169.916 358.013 172.879 L 359.347 171.99 L 359.347 114.205 C 345.123 110.945 331.195 108.649 317.564 107.315 C 303.933 105.982 287.782 105.315 269.113 105.315 C 245.11 105.315 224.886 107.315 208.439 111.315 C 191.992 115.316 178.805 122.428 168.878 132.651 C 158.951 142.875 151.765 157.322 147.32 175.99 C 142.875 194.66 140.653 218.515 140.653 247.555 C 140.653 277.781 142.875 302.525 147.32 321.786 C 151.765 341.048 158.951 355.939 168.878 366.458 C 178.805 376.978 191.992 384.313 208.439 388.461 C 224.886 392.61 245.11 394.684 269.113 394.684 C 287.782 394.684 303.933 393.944 317.564 392.462 C 331.195 390.98 345.123 388.758 359.347 385.794 L 359.347 329.787 Z" style="stroke: rgb(0, 0, 0); stroke-width: 0px; fill-rule: nonzero; fill: url(&quot;#gradient-0&quot;);"/>
</svg>