<?xml version="1.0" encoding="utf-8"?>
<svg xmlns="http://www.w3.org/2000/svg" viewBox="0 0 500 500">
  <defs>
    <linearGradient gradientUnits="userSpaceOnUse" x1="250" y1="13.878" x2="250" y2="486.123" id="gradient-0">
      <stop offset="0" style="stop-color: rgb(100% 0% 51.765%)"/>
      <stop offset="1" style="stop-color: rgb(2, 194, 218);"/>
    </linearGradient>
  </defs>
  <path d="M 74.596 13.878 L 425.405 13.878 C 458.939 13.878 486.123 41.062 486.123 74.596 L 486.123 425.405 C 486.123 458.939 458.939 486.123 425.405 486.123 L 74.596 486.123 C 41.062 486.123 13.878 458.939 13.878 425.405 L 13.878 74.596 C 13.878 41.062 41.062 13.878 74.596 13.878 Z M 300.673 120.176 L 300.673 284.641 C 300.673 299.754 299.339 311.608 296.672 320.201 C 294.005 328.795 289.19 334.796 282.226 338.203 C 275.262 341.611 265.261 343.315 252.222 343.315 C 238.295 343.315 227.479 341.611 219.774 338.203 C 212.069 334.796 206.735 328.795 203.772 320.201 C 200.809 311.608 199.327 299.754 199.327 284.641 L 199.327 120.176 L 128.207 120.176 L 128.207 285.975 C 128.207 315.016 131.763 338.278 138.875 355.761 C 145.987 373.245 158.507 385.913 176.435 393.766 C 194.363 401.619 219.625 405.545 252.222 405.545 C 283.633 405.545 307.933 401.619 325.12 393.766 C 342.307 385.913 354.383 373.245 361.347 355.761 C 368.311 338.278 371.793 315.016 371.793 285.975 L 371.793 120.176 Z" style="stroke: rgb(0, 0, 0); stroke-width: 0px; fill-rule: nonzero; fill: url(&quot;#gradient-0&quot;);"/>
</svg>