<?xml version="1.0" encoding="utf-8"?>
<svg xmlns="http://www.w3.org/2000/svg" viewBox="0 0 500 500">
  <defs>
    <linearGradient gradientUnits="userSpaceOnUse" x1="250" y1="13.878" x2="250" y2="486.123" id="gradient-0" gradientTransform="matrix(1, 0, 0, 1, -0.000498, -0.000498)">
      <stop offset="0" style="stop-color: rgb(100% 0% 51.765%)"/>
      <stop offset="1" style="stop-color: rgb(2, 194, 218);"/>
    </linearGradient>
  </defs>
  <path d="M 74.596 13.878 L 425.405 13.878 C 458.939 13.878 486.123 41.062 486.123 74.596 L 486.123 425.405 C 486.123 458.939 458.939 486.123 425.405 486.123 L 74.596 486.123 C 41.062 486.123 13.878 458.939 13.878 425.405 L 13.878 74.596 C 13.878 41.062 41.062 13.878 74.596 13.878 Z M 298.894 109.315 L 201.104 109.315 L 109.982 389.795 L 109.982 390.684 L 185.547 390.684 C 190.585 375.571 196.067 357.643 201.993 336.899 L 298.005 336.899 C 301.265 347.271 304.303 357.05 307.118 366.236 C 309.933 375.423 312.378 383.572 314.452 390.684 L 390.017 390.684 L 390.017 389.35 Z M 250.888 159.988 C 253.852 175.102 258.149 193.474 263.779 215.106 C 269.409 236.739 275.484 258.816 282.003 281.337 L 218.44 281.337 C 224.663 258.816 230.59 236.739 236.22 215.106 C 241.85 193.474 246.147 175.102 249.11 159.988 Z" style="stroke: rgb(0, 0, 0); stroke-width: 0px; fill-rule: nonzero; fill: url(&quot;#gradient-0&quot;);"/>
</svg>