<?xml version="1.0" encoding="utf-8"?>
<svg xmlns="http://www.w3.org/2000/svg" viewBox="0 0 500 500">
  <defs>
    <linearGradient gradientUnits="userSpaceOnUse" x1="250" y1="13.878" x2="250" y2="486.123" id="gradient-0">
      <stop offset="0" style="stop-color: rgb(100% 0% 51.765%)"/>
      <stop offset="1" style="stop-color: rgb(2, 194, 218);"/>
    </linearGradient>
  </defs>
  <path d="M 74.596 13.878 L 425.405 13.878 C 458.939 13.878 486.123 41.062 486.123 74.596 L 486.123 425.405 C 486.123 458.939 458.939 486.123 425.405 486.123 L 74.596 486.123 C 41.062 486.123 13.878 458.939 13.878 425.405 L 13.878 74.596 C 13.878 41.062 41.062 13.878 74.596 13.878 Z M 200.661 274.225 C 200.957 274.225 201.254 274.225 201.55 274.225 C 201.846 274.225 202.291 274.225 202.884 274.225 C 205.847 274.225 209.329 276.3 213.33 280.448 C 217.33 284.597 221.182 289.116 224.887 294.005 C 228.591 298.895 231.332 302.821 233.11 305.784 L 233.11 305.34 L 288.672 390.684 L 370.46 390.684 L 370.46 389.35 L 311.342 305.34 C 306.008 297.932 300.451 290.449 294.673 282.892 C 288.894 275.336 283.264 268.669 277.782 262.89 C 272.3 257.112 267.484 253.333 263.336 251.555 L 263.336 250.222 C 267.484 248.74 272.3 244.814 277.782 238.442 C 283.264 232.072 288.82 224.663 294.451 216.217 C 300.081 207.772 305.118 199.845 309.564 192.437 L 360.237 110.649 L 360.237 109.315 L 282.894 109.315 L 223.331 205.772 C 220.071 210.514 216.441 215.255 212.441 219.996 C 208.44 224.738 204.958 227.108 201.995 227.108 C 201.698 227.108 201.253 227.108 200.661 227.108 L 200.661 109.315 L 129.541 109.315 L 129.541 390.684 L 200.661 390.684 Z" style="stroke: rgb(0, 0, 0); stroke-width: 0px; fill-rule: nonzero; fill: url(&quot;#gradient-0&quot;);"/>
</svg>