<?xml version="1.0" encoding="utf-8"?>
<svg xmlns="http://www.w3.org/2000/svg" viewBox="0 0 500 500">
  <defs>
    <linearGradient gradientUnits="userSpaceOnUse" x1="250" y1="13.878" x2="250" y2="486.123" id="gradient-0" gradientTransform="matrix(1, 0, 0, 1, 0, 0.521708)">
      <stop offset="0" style="stop-color: rgb(100% 0% 51.765%)"/>
      <stop offset="1" style="stop-color: rgb(2, 194, 218);"/>
    </linearGradient>
  </defs>
  <path d="M 74.596 14.4 L 425.405 14.4 C 458.939 14.4 486.123 41.584 486.123 75.118 L 486.123 425.927 C 486.123 459.461 458.939 486.645 425.405 486.645 L 74.596 486.645 C 41.062 486.645 13.878 459.461 13.878 425.927 L 13.878 75.118 C 13.878 41.584 41.062 14.4 74.596 14.4 Z M 304.674 110.06 C 299.932 125.174 294.895 142.213 289.561 161.178 C 284.227 180.144 278.967 199.405 273.781 218.963 C 268.595 238.521 264.002 256.82 260.002 273.859 C 256.001 290.898 252.964 305.048 250.89 316.308 L 249.112 316.308 C 247.037 305.048 243.999 290.898 239.999 273.859 C 235.999 256.82 231.406 238.447 226.22 218.741 C 221.034 199.035 215.774 179.699 210.44 160.733 C 205.106 141.768 200.068 124.877 195.327 110.06 L 115.762 110.06 L 198.883 390.984 L 296.673 390.984 L 384.24 110.06 Z" style="stroke: rgb(0, 0, 0); stroke-width: 0px; fill-rule: nonzero; fill: url(&quot;#gradient-0&quot;);"/>
</svg>