<?xml version="1.0" encoding="utf-8"?>
<svg xmlns="http://www.w3.org/2000/svg" viewBox="0 0 500 500">
  <defs>
    <linearGradient gradientUnits="userSpaceOnUse" x1="250" y1="13.878" x2="250" y2="486.123" id="gradient-0" gradientTransform="matrix(1, 0, 0, 1, 0, 0)">
      <stop offset="0" style="stop-color: rgb(100% 0% 51.765%)"/>
      <stop offset="1" style="stop-color: rgb(2, 194, 218);"/>
    </linearGradient>
  </defs>
  <path d="M 74.596 13.878 L 425.405 13.878 C 458.939 13.878 486.123 41.062 486.123 74.596 L 486.123 425.405 C 486.123 458.939 458.939 486.123 425.405 486.123 L 74.596 486.123 C 41.062 486.123 13.878 458.939 13.878 425.405 L 13.878 74.596 C 13.878 41.062 41.062 13.878 74.596 13.878 Z M 313.342 332.9 C 310.971 333.493 306.971 333.937 301.34 334.233 C 295.71 334.53 290.08 334.752 284.449 334.9 C 278.819 335.048 274.67 335.122 272.003 335.122 C 251.26 335.122 235.332 332.825 224.22 328.232 C 213.107 323.639 205.551 315.046 201.55 302.451 C 197.549 289.857 195.549 271.559 195.549 247.556 C 195.549 223.257 199.253 205.328 206.662 193.771 C 214.07 182.214 224.516 174.584 237.999 170.879 C 251.482 167.175 267.262 165.323 285.338 165.323 C 297.784 165.323 310.156 165.916 322.454 167.101 C 334.752 168.286 347.124 170.361 359.57 173.324 L 360.903 172.435 L 360.903 113.761 C 346.679 110.502 332.381 108.279 318.009 107.094 C 303.637 105.909 289.339 105.316 275.115 105.316 C 251.112 105.316 229.776 107.316 211.107 111.316 C 192.438 115.317 176.658 122.429 163.768 132.652 C 150.877 142.876 141.098 157.322 134.431 175.991 C 127.763 194.66 124.429 218.515 124.429 247.556 C 124.429 283.412 128.578 312.082 136.875 333.566 C 145.172 355.051 159.396 370.608 179.547 380.239 C 199.698 389.87 227.553 394.685 263.113 394.685 C 289.783 394.685 311.786 392.981 329.122 389.573 C 346.457 386.166 361.941 381.35 375.572 375.127 L 375.572 223.997 L 259.557 224.442 L 259.557 282.227 C 267.854 282.523 276.893 282.449 286.672 282.004 C 296.451 281.56 305.489 280.745 313.786 279.56 L 314.675 280.893 C 313.786 288.894 313.342 297.784 313.342 307.563 Z" style="stroke: rgb(0, 0, 0); stroke-width: 0px; fill-rule: nonzero; fill: url(&quot;#gradient-0&quot;);"/>
</svg>