<?xml version="1.0" encoding="utf-8"?>
<svg xmlns="http://www.w3.org/2000/svg" viewBox="0 0 500 500">
  <defs>
    <linearGradient gradientUnits="userSpaceOnUse" x1="250" y1="13.878" x2="250" y2="486.123" id="gradient-0">
      <stop offset="0" style="stop-color: rgb(100% 0% 51.765%)"/>
      <stop offset="1" style="stop-color: rgb(2, 194, 218);"/>
    </linearGradient>
  </defs>
  <path d="M 74.596 13.878 L 425.405 13.878 C 458.939 13.878 486.123 41.062 486.123 74.596 L 486.123 425.405 C 486.123 458.939 458.939 486.123 425.405 486.123 L 74.596 486.123 C 41.062 486.123 13.878 458.939 13.878 425.405 L 13.878 74.596 C 13.878 41.062 41.062 13.878 74.596 13.878 Z M 305.563 222.218 C 305.563 233.776 306.303 245.407 307.785 257.111 C 309.267 268.817 311.489 280.892 314.453 293.338 L 313.119 295.116 C 308.674 286.226 304.674 278.522 301.118 272.002 C 297.562 265.483 293.709 258.89 289.561 252.222 C 285.412 245.555 280.226 237.628 274.003 228.441 L 193.993 109.315 L 123.318 109.315 L 123.318 390.684 L 194.438 390.684 L 194.438 282.226 C 194.438 270.669 193.993 258.741 193.104 246.443 C 192.215 234.146 189.696 220.885 185.548 206.661 L 186.881 204.883 C 191.326 213.773 195.327 221.478 198.883 227.997 C 202.439 234.517 206.291 241.036 210.44 247.555 C 214.588 254.075 219.774 262.076 225.997 271.558 L 306.007 390.684 L 376.683 390.684 L 376.683 109.315 L 305.563 109.315 Z" style="stroke: rgb(0, 0, 0); stroke-width: 0px; fill-rule: nonzero; fill: url(&quot;#gradient-0&quot;);"/>
</svg>