<?xml version="1.0" encoding="utf-8"?>
<svg xmlns="http://www.w3.org/2000/svg" viewBox="0 0 500 500">
  <defs>
    <linearGradient gradientUnits="userSpaceOnUse" x1="250" y1="13.878" x2="250" y2="486.123" id="gradient-0">
      <stop offset="0" style="stop-color: rgb(100% 0% 51.765%)"/>
      <stop offset="1" style="stop-color: rgb(2, 194, 218);"/>
    </linearGradient>
  </defs>
  <path d="M 74.596 13.878 L 425.405 13.878 C 458.939 13.878 486.123 41.062 486.123 74.596 L 486.123 425.405 C 486.123 458.939 458.939 486.123 425.405 486.123 L 74.596 486.123 C 41.062 486.123 13.878 458.939 13.878 425.405 L 13.878 74.596 C 13.878 41.062 41.062 13.878 74.596 13.878 Z M 246.444 390.684 C 271.04 390.684 291.635 388.684 308.23 384.683 C 324.824 380.683 338.159 373.497 348.235 363.125 C 358.31 352.753 365.57 338.233 370.015 319.564 C 374.46 300.895 376.683 276.892 376.683 247.555 C 376.683 219.403 374.46 196.363 370.015 178.435 C 365.57 160.507 358.31 146.506 348.235 136.43 C 338.159 126.355 324.824 119.317 308.23 115.316 C 291.635 111.316 271.04 109.315 246.444 109.315 L 123.318 109.315 L 123.318 390.684 Z M 276.892 174.657 C 286.819 178.213 293.931 185.547 298.228 196.659 C 302.525 207.772 304.674 224.737 304.674 247.555 C 304.674 271.558 302.525 289.486 298.228 301.339 C 293.931 313.193 286.819 321.046 276.892 324.898 C 266.965 328.75 253.408 330.676 236.221 330.676 L 194.438 330.676 L 194.438 169.323 L 236.221 169.323 C 253.408 169.323 266.965 171.101 276.892 174.657 Z" style="stroke: rgb(0, 0, 0); stroke-width: 0px; fill-rule: nonzero; fill: url(&quot;#gradient-0&quot;);"/>
</svg>