<?xml version="1.0" encoding="utf-8"?>
<svg xmlns="http://www.w3.org/2000/svg" viewBox="0 0 500 500">
  <defs>
    <linearGradient gradientUnits="userSpaceOnUse" x1="250" y1="13.878" x2="250" y2="486.123" id="gradient-0">
      <stop offset="0" style="stop-color: rgb(100% 0% 51.765%)"/>
      <stop offset="1" style="stop-color: rgb(2, 194, 218);"/>
    </linearGradient>
  </defs>
  <path d="M 74.596 13.878 L 425.405 13.878 C 458.939 13.878 486.123 41.062 486.123 74.596 L 486.123 425.405 C 486.123 458.939 458.939 486.123 425.405 486.123 L 74.596 486.123 C 41.062 486.123 13.878 458.939 13.878 425.405 L 13.878 74.596 C 13.878 41.062 41.062 13.878 74.596 13.878 Z M 197.994 300.45 L 207.329 300.45 C 214.737 300.45 220.145 300.747 223.553 301.339 C 226.961 301.932 229.924 303.562 232.443 306.229 C 234.961 308.896 238.295 313.341 242.444 319.564 L 290.45 390.684 L 373.127 390.684 L 373.127 390.239 C 366.311 378.979 358.533 366.903 349.791 354.012 C 341.049 341.122 332.233 329.195 323.343 318.23 C 314.453 307.266 306.304 299.414 298.896 294.672 L 299.34 293.338 C 318.305 289.19 333.566 278.892 345.124 262.445 C 356.68 245.999 362.459 226.219 362.459 203.105 C 362.459 172.287 354.384 148.95 338.234 133.096 C 322.084 117.242 296.377 109.315 261.113 109.315 L 126.874 109.315 L 126.874 390.684 L 197.994 390.684 Z M 280.449 175.99 C 286.227 181.917 289.117 191.548 289.117 204.883 C 289.117 218.218 286.227 227.849 280.449 233.775 C 274.67 239.702 264.372 242.665 249.556 242.665 L 197.994 242.665 L 197.994 167.1 L 249.556 167.1 C 264.372 167.1 274.67 170.064 280.449 175.99 Z" style="stroke: rgb(0, 0, 0); stroke-width: 0px; fill-rule: nonzero; fill: url(&quot;#gradient-0&quot;);"/>
</svg>