<?xml version="1.0" encoding="utf-8"?>
<svg xmlns="http://www.w3.org/2000/svg" viewBox="0 0 500 500">
  <defs>
    <linearGradient gradientUnits="userSpaceOnUse" x1="250" y1="13.878" x2="250" y2="486.123" id="gradient-0">
      <stop offset="0" style="stop-color: rgb(100% 0% 51.765%)"/>
      <stop offset="1" style="stop-color: rgb(2, 194, 218);"/>
    </linearGradient>
  </defs>
  <path d="M 74.596 13.878 L 425.405 13.878 C 458.939 13.878 486.123 41.062 486.123 74.596 L 486.123 425.405 C 486.123 458.939 458.939 486.123 425.405 486.123 L 74.596 486.123 C 41.062 486.123 13.878 458.939 13.878 425.405 L 13.878 74.596 C 13.878 41.062 41.062 13.878 74.596 13.878 Z M 265.558 278.003 C 265.558 291.931 264.447 302.599 262.224 310.007 C 260.001 317.416 255.704 322.528 249.333 325.342 C 242.962 328.158 233.554 329.565 221.108 329.565 C 209.255 329.565 199.327 328.825 191.326 327.343 C 183.325 325.861 174.732 323.639 165.545 320.675 L 163.767 321.564 L 163.767 382.461 C 175.324 386.313 186.289 388.98 196.66 390.462 C 207.032 391.944 219.774 392.684 234.887 392.684 C 271.632 392.684 297.71 383.868 313.119 366.236 C 328.528 348.605 336.233 321.713 336.233 285.56 L 336.233 107.315 L 265.113 107.315 Z" style="stroke: rgb(0, 0, 0); stroke-width: 0px; fill-rule: nonzero; fill: url(&quot;#gradient-0&quot;);"/>
</svg>