<?xml version="1.0" encoding="utf-8"?>
<svg xmlns="http://www.w3.org/2000/svg" viewBox="0 0 500 500">
  <defs>
    <linearGradient gradientUnits="userSpaceOnUse" x1="250" y1="13.878" x2="250" y2="486.123" id="gradient-0">
      <stop offset="0" style="stop-color: rgb(100% 0% 51.765%)"/>
      <stop offset="1" style="stop-color: rgb(2, 194, 218);"/>
    </linearGradient>
  </defs>
  <path d="M 74.596 13.878 L 425.405 13.878 C 458.939 13.878 486.123 41.062 486.123 74.596 L 486.123 425.405 C 486.123 458.939 458.939 486.123 425.405 486.123 L 74.596 486.123 C 41.062 486.123 13.878 458.939 13.878 425.405 L 13.878 74.596 C 13.878 41.062 41.062 13.878 74.596 13.878 Z M 285.561 390.684 L 285.561 303.562 L 376.683 110.649 L 376.683 109.315 L 298.896 109.315 C 289.709 133.319 282.375 152.506 276.893 166.878 C 271.411 181.25 267.114 192.511 264.002 200.66 C 260.89 208.81 258.446 215.403 256.668 220.44 C 254.89 225.478 252.964 230.812 250.89 236.442 L 249.112 236.442 C 247.037 230.812 245.111 225.478 243.333 220.44 C 241.555 215.403 239.11 208.81 235.999 200.66 C 232.887 192.511 228.59 181.25 223.108 166.878 C 217.626 152.506 210.292 133.319 201.106 109.315 L 123.318 109.315 L 123.318 110.649 L 214.441 303.562 L 214.441 390.684 Z" style="stroke: rgb(0, 0, 0); stroke-width: 0px; fill-rule: nonzero; fill: url(&quot;#gradient-0&quot;);"/>
</svg>