<?xml version="1.0" encoding="utf-8"?>
<svg xmlns="http://www.w3.org/2000/svg" viewBox="0 0 500 500">
  <defs>
    <linearGradient gradientUnits="userSpaceOnUse" x1="250" y1="13.878" x2="250" y2="486.123" id="gradient-0">
      <stop offset="0" style="stop-color: rgb(100% 0% 51.765%)"/>
      <stop offset="1" style="stop-color: rgb(2, 194, 218);"/>
    </linearGradient>
  </defs>
  <path d="M 74.596 13.878 L 425.405 13.878 C 458.939 13.878 486.123 41.062 486.123 74.596 L 486.123 425.405 C 486.123 458.939 458.939 486.123 425.405 486.123 L 74.596 486.123 C 41.062 486.123 13.878 458.939 13.878 425.405 L 13.878 74.596 C 13.878 41.062 41.062 13.878 74.596 13.878 Z M 123.763 306.451 C 131.615 327.491 145.321 342.678 164.879 352.012 C 184.437 361.347 211.699 366.162 246.667 366.458 L 278.226 422.91 L 359.125 422.91 L 359.125 421.576 C 353.791 412.094 347.494 402.167 340.234 391.795 C 332.974 381.423 324.899 371.348 316.009 361.569 L 316.009 359.346 C 334.381 354.309 348.753 346.16 359.125 334.899 C 369.497 323.639 376.905 308.748 381.35 290.226 C 385.795 271.706 388.018 248.814 388.018 221.551 C 388.018 194.881 385.869 172.286 381.573 153.765 C 377.275 135.245 369.941 120.354 359.57 109.093 C 349.198 97.833 335.122 89.683 317.342 84.645 C 299.562 79.608 277.189 77.089 250.223 77.089 C 214.366 77.089 186.437 81.682 166.435 90.868 C 146.432 100.055 132.356 115.168 124.207 136.207 C 116.057 157.247 111.983 185.695 111.983 221.551 C 111.983 257.111 115.909 285.411 123.763 306.451 Z M 207.773 297.116 C 198.142 292.375 191.623 284.004 188.215 272.002 C 184.807 260.001 183.103 243.184 183.103 221.551 C 183.103 200.215 184.807 183.621 188.215 171.767 C 191.623 159.914 198.142 151.543 207.773 146.653 C 217.403 141.764 231.553 139.319 250.223 139.319 C 269.188 139.319 283.412 141.764 292.895 146.653 C 302.377 151.543 308.748 159.914 312.008 171.767 C 315.268 183.621 316.898 200.215 316.898 221.551 C 316.898 243.184 315.268 260.001 312.008 272.002 C 308.748 284.004 302.377 292.375 292.895 297.116 C 283.412 301.858 269.188 304.228 250.223 304.228 C 231.553 304.228 217.403 301.858 207.773 297.116 Z" style="stroke: rgb(0, 0, 0); stroke-width: 0px; fill-rule: nonzero; fill: url(&quot;#gradient-0&quot;);"/>
</svg>