<?xml version="1.0" encoding="utf-8"?>
<svg xmlns="http://www.w3.org/2000/svg" viewBox="0 0 500 500">
  <defs>
    <linearGradient gradientUnits="userSpaceOnUse" x1="250" y1="13.878" x2="250" y2="486.123" id="gradient-0">
      <stop offset="0" style="stop-color: rgb(100% 0% 51.765%)"/>
      <stop offset="1" style="stop-color: rgb(2, 194, 218);"/>
    </linearGradient>
  </defs>
  <path d="M 74.596 13.878 L 425.405 13.878 C 458.939 13.878 486.123 41.062 486.123 74.596 L 486.123 425.405 C 486.123 458.939 458.939 486.123 425.405 486.123 L 74.596 486.123 C 41.062 486.123 13.878 458.939 13.878 425.405 L 13.878 74.596 C 13.878 41.062 41.062 13.878 74.596 13.878 Z M 200.882 321.786 L 255.111 321.786 C 283.263 321.786 305.785 318.082 322.675 310.674 C 339.567 303.266 351.716 291.783 359.124 276.225 C 366.533 260.668 370.237 240.443 370.237 215.551 C 370.237 189.177 366.533 168.286 359.124 152.876 C 351.716 137.467 339.567 126.355 322.675 119.539 C 305.785 112.723 283.263 109.315 255.111 109.315 L 129.762 109.315 L 129.762 390.684 L 200.882 390.684 Z M 285.782 178.879 C 292.894 186.436 296.45 198.66 296.45 215.551 C 296.45 233.331 292.894 245.777 285.782 252.889 C 278.67 260.001 264.594 263.557 243.554 263.557 L 200.882 263.557 L 200.882 167.545 L 243.554 167.545 C 264.594 167.545 278.67 171.323 285.782 178.879 Z" style="stroke: rgb(0, 0, 0); stroke-width: 0px; fill-rule: nonzero; fill: url(&quot;#gradient-0&quot;);"/>
</svg>