<?xml version="1.0" encoding="utf-8"?>
<svg xmlns="http://www.w3.org/2000/svg" viewBox="0 0 500 500">
  <defs>
    <linearGradient gradientUnits="userSpaceOnUse" x1="250" y1="13.878" x2="250" y2="486.123" id="gradient-0">
      <stop offset="0" style="stop-color: rgb(100% 0% 51.765%)"/>
      <stop offset="1" style="stop-color: rgb(2, 194, 218);"/>
    </linearGradient>
  </defs>
  <path d="M 74.596 13.878 L 425.405 13.878 C 458.939 13.878 486.123 41.062 486.123 74.596 L 486.123 425.405 C 486.123 458.939 458.939 486.123 425.405 486.123 L 74.596 486.123 C 41.062 486.123 13.878 458.939 13.878 425.405 L 13.878 74.596 C 13.878 41.062 41.062 13.878 74.596 13.878 Z M 288.672 376.46 C 293.413 360.458 298.377 343.493 303.563 325.564 C 308.749 307.636 313.86 289.782 318.898 272.002 C 323.936 254.222 328.603 237.554 332.9 221.996 C 337.196 206.439 340.826 193.03 343.79 181.769 C 346.753 170.509 348.827 162.508 350.013 157.766 L 351.791 158.21 C 351.198 163.544 350.531 170.582 349.791 179.324 C 349.05 188.066 348.531 197.253 348.235 206.883 C 347.939 216.514 347.791 225.33 347.791 233.331 L 347.791 390.684 L 414.91 390.684 L 414.91 109.315 L 297.562 109.315 C 293.71 125.021 289.413 141.542 284.672 158.877 C 279.93 176.213 275.337 193.474 270.892 210.661 C 266.447 227.849 262.521 243.999 259.113 259.112 C 255.705 274.225 253.26 287.412 251.779 298.672 L 250.89 298.672 C 249.408 287.412 246.889 274.151 243.333 258.889 C 239.777 243.629 235.702 227.479 231.11 210.439 C 226.516 193.4 221.923 176.213 217.33 158.877 C 212.736 141.542 208.365 125.021 204.217 109.315 L 85.091 109.315 L 85.091 390.684 L 153.1 390.684 L 153.1 233.331 C 153.1 225.33 152.951 216.514 152.655 206.883 C 152.359 197.253 151.914 188.066 151.322 179.324 C 150.729 170.582 149.988 163.544 149.099 158.21 L 150.877 157.766 C 152.062 162.508 154.136 170.509 157.1 181.769 C 160.063 193.03 163.619 206.365 167.768 221.774 C 171.916 237.184 176.51 253.778 181.548 271.558 C 186.585 289.338 191.697 307.266 196.883 325.342 C 202.069 343.419 207.18 360.458 212.218 376.46 Z" style="stroke: rgb(0, 0, 0); stroke-width: 0px; fill-rule: nonzero; fill: url(&quot;#gradient-0&quot;);"/>
</svg>