<?xml version="1.0" encoding="utf-8"?>
<svg xmlns="http://www.w3.org/2000/svg" viewBox="0 0 500 500">
  <defs>
    <linearGradient gradientUnits="userSpaceOnUse" x1="250" y1="13.878" x2="250" y2="486.123" id="gradient-0">
      <stop offset="0" style="stop-color: rgb(100% 0% 51.765%)"/>
      <stop offset="1" style="stop-color: rgb(2, 194, 218);"/>
    </linearGradient>
  </defs>
  <path d="M 74.596 13.878 L 425.405 13.878 C 458.939 13.878 486.123 41.062 486.123 74.596 L 486.123 425.405 C 486.123 458.939 458.939 486.123 425.405 486.123 L 74.596 486.123 C 41.062 486.123 13.878 458.939 13.878 425.405 L 13.878 74.596 C 13.878 41.062 41.062 13.878 74.596 13.878 Z M 347.29 214.384 C 341.956 245.795 336.474 277.207 330.843 308.618 L 329.954 308.618 C 323.435 277.207 316.841 245.795 310.174 214.384 C 303.507 182.973 296.765 151.561 289.949 120.15 L 203.716 120.15 C 198.679 140.893 193.937 161.192 189.492 181.047 C 185.047 200.901 180.751 221.126 176.602 241.721 C 172.453 262.316 168.156 284.615 163.711 308.618 L 162.822 308.618 C 159.266 284.615 155.784 262.316 152.377 241.721 C 148.969 221.126 145.487 200.901 141.931 181.047 C 138.375 161.192 134.374 140.893 129.929 120.15 L 57.476 120.15 L 117.039 401.519 L 203.716 401.519 C 212.013 369.811 219.496 338.844 226.164 308.618 C 232.831 278.392 239.573 246.092 246.388 211.717 L 247.277 211.717 C 253.204 246.092 259.501 278.392 266.169 308.618 C 272.836 338.844 280.763 369.811 289.949 401.519 L 376.627 401.519 L 436.19 120.15 L 363.736 120.15 C 358.106 151.561 352.624 182.973 347.29 214.384 Z" style="stroke: rgb(0, 0, 0); stroke-width: 0px; fill-rule: nonzero; fill: url(&quot;#gradient-0&quot;);"/>
</svg>