<?xml version="1.0" encoding="utf-8"?>
<svg xmlns="http://www.w3.org/2000/svg" viewBox="0 0 500 500">
  <path d="M 121.802 54.065 L 379.07 54.065 C 446.099 54.065 500.436 108.402 500.436 175.431 L 500.436 324.568 C 500.436 391.597 446.099 445.934 379.07 445.934 L 121.802 445.934 C 54.773 445.934 0.436 391.597 0.436 324.568 L 0.436 175.431 C 0.436 108.402 54.773 54.065 121.802 54.065 Z M 124.739 117.651 L 124.739 105.095 L 72.811 105.095 L 72.811 157.023 L 85.365 157.023 L 85.365 342.976 L 72.811 342.976 L 72.811 394.904 L 124.739 394.904 L 124.739 382.351 L 375.261 382.351 L 375.261 394.904 L 427.189 394.904 L 427.189 342.976 L 414.634 342.976 L 414.634 157.023 L 427.189 157.023 L 427.189 105.095 L 375.261 105.095 L 375.261 117.651 Z M 112.184 157.023 L 124.739 157.023 L 124.739 144.47 L 375.261 144.47 L 375.261 157.023 L 387.815 157.023 L 387.815 342.976 L 375.261 342.976 L 375.261 355.532 L 124.739 355.532 L 124.739 342.976 L 112.184 342.976 Z" style="stroke-width: 0px; stroke: rgb(0, 0, 0);"/>
  <path d="M 768.351 75.547 L 1025.62 75.547 C 1092.65 75.547 1146.98 129.884 1146.98 196.913 L 1146.98 346.05 C 1146.98 413.079 1092.65 467.416 1025.62 467.416 L 768.351 467.416 C 701.322 467.416 646.985 413.079 646.985 346.05 L 646.985 196.913 C 646.985 129.884 701.322 75.547 768.351 75.547 Z M 838.969 389.896 L 882.678 269.892 C 877.38 268.572 872.413 266.652 867.777 264.132 C 863.142 261.612 858.837 258.502 854.863 254.792 L 809.564 379.564 L 813.538 414.532 L 838.969 389.896 Z M 984.405 379.564 L 939.105 254.792 C 935.131 258.502 930.825 261.612 926.189 264.132 C 921.554 266.652 916.587 268.572 911.288 269.892 L 954.999 389.896 L 980.43 414.532 L 984.405 379.564 Z M 930.759 241.682 C 940.031 232.412 944.668 221.152 944.668 207.902 C 944.668 197.572 941.688 188.372 935.727 180.292 C 929.765 172.212 922.15 166.582 912.878 163.402 L 912.878 128.432 L 881.089 128.432 L 881.089 163.402 C 871.817 166.582 864.201 172.212 858.241 180.292 C 852.28 188.372 849.3 197.572 849.3 207.902 C 849.3 221.152 853.936 232.412 863.208 241.682 C 872.48 250.952 883.738 255.592 896.983 255.592 C 910.229 255.592 921.487 250.952 930.759 241.682 Z M 885.658 219.232 C 882.612 216.182 881.089 212.412 881.089 207.902 C 881.089 203.402 882.612 199.632 885.658 196.582 C 888.705 193.532 892.48 192.012 896.983 192.012 C 901.487 192.012 905.262 193.532 908.308 196.582 C 911.354 199.632 912.878 203.402 912.878 207.902 C 912.878 212.412 911.354 216.182 908.308 219.232 C 905.262 222.272 901.487 223.802 896.983 223.802 C 892.48 223.802 888.705 222.272 885.658 219.232 Z" style="stroke-width: 0; stroke: rgb(0, 0, 0);"/>
</svg>