<?xml version="1.0" encoding="utf-8"?>
<svg xmlns="http://www.w3.org/2000/svg" viewBox="0 0 500 500">
  <path d="M 121.366 54.065 L 378.634 54.065 C 445.663 54.065 500 108.402 500 175.431 L 500 324.568 C 500 391.597 445.663 445.934 378.634 445.934 L 121.366 445.934 C 54.337 445.934 0 391.597 0 324.568 L 0 175.431 C 0 108.402 54.337 54.065 121.366 54.065 Z M 191.984 368.414 L 235.693 248.41 C 230.395 247.09 225.428 245.17 220.792 242.65 C 216.157 240.13 211.852 237.02 207.878 233.31 L 162.579 358.082 L 166.553 393.05 Z M 337.42 358.082 L 292.12 233.31 C 288.146 237.02 283.84 240.13 279.204 242.65 C 274.569 245.17 269.602 247.09 264.303 248.41 L 308.014 368.414 L 333.445 393.05 Z M 283.774 220.2 C 293.046 210.93 297.683 199.67 297.683 186.42 C 297.683 176.09 294.703 166.89 288.742 158.81 C 282.78 150.73 275.165 145.1 265.893 141.92 L 265.893 106.95 L 234.104 106.95 L 234.104 141.92 C 224.832 145.1 217.216 150.73 211.256 158.81 C 205.295 166.89 202.315 176.09 202.315 186.42 C 202.315 199.67 206.951 210.93 216.223 220.2 C 225.495 229.47 236.753 234.11 249.998 234.11 C 263.244 234.11 274.502 229.47 283.774 220.2 Z M 238.673 197.75 C 235.627 194.7 234.104 190.93 234.104 186.42 C 234.104 181.92 235.627 178.15 238.673 175.1 C 241.72 172.05 245.495 170.53 249.998 170.53 C 254.502 170.53 258.277 172.05 261.323 175.1 C 264.369 178.15 265.893 181.92 265.893 186.42 C 265.893 190.93 264.369 194.7 261.323 197.75 C 258.277 200.79 254.502 202.32 249.998 202.32 C 245.495 202.32 241.72 200.79 238.673 197.75 Z" style="stroke-width: 0px; stroke: rgb(0, 0, 0);"/>
</svg>