<?xml version="1.0" encoding="utf-8"?>
<svg xmlns="http://www.w3.org/2000/svg" viewBox="0 0 500 500">
  <path d="M 326.032 17.614 L 26.032 17.614 C 17.748 17.614 11.032 24.33 11.032 32.614 L 11.032 332.618 C 11.032 340.902 17.748 347.618 26.032 347.618 L 196.032 347.618 C 204.316 347.618 211.032 340.902 211.032 332.618 C 211.032 324.334 204.316 317.618 196.032 317.618 L 41.032 317.618 L 41.032 187.618 L 111.032 187.618 L 111.032 242.614 C 111.032 250.898 117.748 257.614 126.032 257.614 C 134.316 257.614 141.032 250.898 141.032 242.614 L 141.032 102.614 C 141.032 94.33 134.316 87.614 126.032 87.614 C 117.748 87.614 111.032 94.33 111.032 102.614 L 111.032 157.618 L 41.032 157.618 L 41.032 47.614 L 191.032 47.614 L 191.032 122.618 C 191.032 130.902 197.748 137.618 206.032 137.618 L 276.032 137.618 C 284.316 137.618 291.032 130.902 291.032 122.618 C 291.032 114.334 284.316 107.618 276.032 107.618 L 221.032 107.618 L 221.032 47.614 L 311.032 47.614 L 311.032 227.618 L 206.032 227.618 C 197.748 227.618 191.032 234.334 191.032 242.618 C 191.032 250.902 197.748 257.618 206.032 257.618 L 311.032 257.618 L 311.032 317.618 L 286.032 317.618 C 277.748 317.618 271.032 324.334 271.032 332.618 C 271.032 340.902 277.748 347.618 286.032 347.618 L 326.032 347.618 C 334.316 347.618 341.032 340.902 341.032 332.618 L 341.032 32.614 C 341.032 24.33 334.316 17.614 326.032 17.614 Z" style="stroke-width: 1;"/>
  <rect x="153.173" y="144.381" width="239.462" height="256.706" style="fill: rgb(216, 216, 216); stroke: rgb(0, 0, 0);"/>
  <path d="M 261.373 358.371 L 261.373 279.369 L 192.159 239.287 L 192.159 318.291 L 261.373 358.371 Z M 284.444 358.371 L 353.643 318.291 L 353.643 239.287 L 284.444 279.369 L 284.444 358.371 Z M 261.373 384.902 L 180.638 338.478 C 176.984 336.363 174.153 333.577 172.123 330.115 C 170.112 326.654 169.099 322.81 169.099 318.581 L 169.099 226.887 C 169.099 222.66 170.112 218.814 172.123 215.355 C 174.153 211.895 176.984 209.108 180.638 206.995 L 261.373 160.569 C 265.013 158.454 268.877 157.397 272.901 157.397 C 276.94 157.397 280.786 158.454 284.444 160.569 L 365.177 206.995 C 368.83 209.108 371.662 211.895 373.682 215.355 C 375.701 218.814 376.709 222.66 376.709 226.887 L 376.709 318.581 C 376.709 322.81 375.701 326.654 373.682 330.115 C 371.662 333.577 368.83 336.363 365.177 338.478 L 284.444 384.902 C 280.786 387.015 276.94 388.071 272.901 388.071 C 268.877 388.071 265.013 387.015 261.373 384.902 Z M 319.042 232.655 L 341.243 219.968 L 272.901 180.465 L 250.419 193.442 L 319.042 232.655 Z M 272.901 259.47 L 295.395 246.495 L 227.051 206.995 L 204.576 219.968 L 272.901 259.47 Z" style="stroke-width: 1; transform-box: fill-box; transform-origin: 50% 50%;"/>
</svg>