<?xml version="1.0" encoding="utf-8"?>
<svg xmlns="http://www.w3.org/2000/svg" viewBox="0 0 500 500">
  <path d="M 121.802 54.065 L 379.07 54.065 C 446.099 54.065 500.436 108.402 500.436 175.431 L 500.436 324.568 C 500.436 391.597 446.099 445.934 379.07 445.934 L 121.802 445.934 C 54.773 445.934 0.436 391.597 0.436 324.568 L 0.436 175.431 C 0.436 108.402 54.773 54.065 121.802 54.065 Z M 92.951 333.993 C 99.745 341.404 111.274 345.11 127.537 345.11 C 143.801 345.11 156.873 343.669 166.754 340.787 L 166.754 300.643 L 165.828 300.025 C 162.123 300.437 158.417 300.797 154.711 301.106 C 151.006 301.415 147.506 301.569 144.212 301.569 C 139.066 301.569 135.772 300.488 134.33 298.327 C 132.89 296.165 132.169 292.202 132.169 286.438 L 132.169 232.398 L 165.828 232.398 L 165.828 192.254 L 132.169 192.254 L 132.169 155.507 L 96.657 155.507 L 87.393 192.254 L 64.233 192.254 L 64.233 232.398 L 82.761 232.398 L 82.761 297.246 C 82.761 314.333 86.158 326.582 92.951 333.993 Z M 191.453 377.225 L 237.773 377.225 L 303.856 122.774 L 257.536 122.774 Z M 347.394 232.089 L 347.394 342.331 L 395.258 342.331 L 395.258 232.089 L 436.638 232.089 L 436.638 191.945 L 395.258 191.945 L 395.258 181.755 C 395.258 176.402 396.648 172.439 399.427 169.866 C 402.207 167.293 407.096 166.006 414.095 166.006 C 417.389 166.006 420.889 166.16 424.594 166.469 C 428.3 166.778 432.006 167.138 435.711 167.55 L 436.638 166.932 L 436.638 132.347 C 432.521 130.906 427.683 129.619 422.124 128.487 C 416.566 127.354 410.493 126.788 403.905 126.788 C 385.171 126.788 371.069 131.266 361.599 140.221 C 352.129 149.176 347.394 163.844 347.394 184.225 L 347.394 191.945 L 325.47 191.945 L 325.47 232.089 Z" style="stroke-width: 0px; stroke: rgb(0, 0, 0);"/>
</svg>