<?xml version="1.0" encoding="utf-8"?>
<svg xmlns="http://www.w3.org/2000/svg" viewBox="0 0 500 500">
  <path d="M 121.802 54.065 L 379.07 54.065 C 446.099 54.065 500.436 108.402 500.436 175.431 L 500.436 324.568 C 500.436 391.597 446.099 445.934 379.07 445.934 L 121.802 445.934 C 54.773 445.934 0.436 391.597 0.436 324.568 L 0.436 175.431 C 0.436 108.402 54.773 54.065 121.802 54.065 Z M 124.739 117.651 L 124.739 105.095 L 72.811 105.095 L 72.811 157.023 L 85.365 157.023 L 85.365 342.976 L 72.811 342.976 L 72.811 394.904 L 124.739 394.904 L 124.739 382.351 L 375.261 382.351 L 375.261 394.904 L 427.189 394.904 L 427.189 342.976 L 414.634 342.976 L 414.634 157.023 L 427.189 157.023 L 427.189 105.095 L 375.261 105.095 L 375.261 117.651 Z M 112.184 157.023 L 124.739 157.023 L 124.739 144.47 L 375.261 144.47 L 375.261 157.023 L 387.815 157.023 L 387.815 342.976 L 375.261 342.976 L 375.261 355.532 L 124.739 355.532 L 124.739 342.976 L 112.184 342.976 Z" style="stroke-width: 0px; stroke: rgb(0, 0, 0);"/>
</svg>